<svg xmlns="http://www.w3.org/2000/svg" width="24" viewBox="0 0 375 375" height="24" version="1.0"><path d="M375.004 187.5c0 103.559-83.945 187.504-187.496 187.504C83.949 375.004.004 291.059.004 187.5.004 83.95 83.949.004 187.508.004c103.55 0 187.496 83.945 187.496 187.496"/><path fill="#d2d2d2" d="M.023 190.742v-.02.02m0-.129v-.035.035m0-.136v-.036.036m-.007-.137v-.043.043m0-.137v-.047.047m0-.144v-.032.032m-.004-.227v-.05.05m0-.129v-.058.058m0-.137v-.066.066m0-.144v-.067.067m0-.137v-.074.074m-.008-.144v-.075.075m0-.145v-.082.082m0-.137v-.117.117m0-.16v-.129.13m0-.18v-.094.094m0-.145v-.094.094m0-.152v-.086.086m0-.145v-.086.086m0-.144v-.086.086m0-.145v-.101.101m0-.144v-.145.145"/><path fill="#545454" d="M153.594 371.883C67.266 356.109 1.563 281.262.024 190.743v-.302c-.008-.039-.008-.066-.008-.101V190.027c0-.058 0-.129-.004-.195v-.621c0-.027 0-.043-.008-.07V187.5c0-3.375.094-6.727.266-10.055L138.066 74.871l101.586 232.512-86.058 64.5"/><path fill="#fff" d="m251.02 144.559-9.836.05.242 29.223h-8.516V136.18h-23.113v37.726h-8.524l-.535-46.285-22.586.043v46.242h-8.523V75.11l-22.984-.765-.208 124.8h-8.515v-19.472h-8.25l.035-8.336-8.668-.441v-8.524l-15.977.492v16.446l-.164 8.457 8.68.058v16.86l8.524.171v15.93l8.515 1.11v15.835l8.516 1.278v15.933l8.515 1.098v15.84l8.532 1.2v25.483h86.316v-25.05l8.524-.266v-50.742h7.101v-69.457l-7.101.094v-8.582"/><path fill="#737373" d="M232.125 135.73v-8.44h-31.637v46.241h8.524v-37.726h23.113v37.652h8.516v-29.215h9.586v-8.512h-18.102M250.227 273.137h8.523v-51.008h-8.523v51.008M250.227 144.242v8.524h8.523v-8.524h-8.523M258.75 152.766v69.363h8.508v-69.363h-8.508M120.254 161.996v8.524h8.516v-8.524h-8.516M121.309 221.52v17.035h8.523V221.52h-8.523M129.832 238.633v17.031h8.516v-17.031h-8.516M138.348 255.664v17.04h8.515v-17.04h-8.515M112.797 204.48v17.04h8.512v-17.04h-8.512M104.277 187.45v17.03h8.52v-17.03h-8.52M104.277 178.934v-16.672h-8.52v25.187h8.52v-8.515M120.441 153.48h-16.093v8.516h16.093v-8.516M241.71 298.188h-86.315v-25.485h-8.532v34h94.848v-8.48h8.516v-25.086h-8.516v25.05M137.133 170.777h-8.25v8.516h8.25v19.477h8.515V74.234h-8.515v96.543M177.367 118.773v-44.8h-8.523v99.558h8.523V127.29h23.121v-8.516h-23.12M145.73 66.203v8.531h23.114v-8.53H145.73"/></svg>