<svg xmlns="http://www.w3.org/2000/svg" width="24" viewBox="0 0 375 375" height="24" version="1.0"><defs><clipPath id="i"><path d="m-65.996 16.832 170.144-114.16 62.68 93.422-170.14 114.16zm0 0"/></clipPath><clipPath id="a"><path d="M0 278h375v97H0zm0 0"/></clipPath><clipPath id="c"><path d="M644.113 447.121 429.336 745.328-63.621 390.29 151.156 92.082zm0 0"/></clipPath><clipPath id="d"><path d="M158 361h217v14H158zm0 0"/></clipPath><clipPath id="e"><path d="M-63.324 390.344 151.453 92.137l492.953 355.039L429.63 745.383zm0 0"/></clipPath><clipPath id="f"><path d="M644.113 447.121 429.336 745.328-63.621 390.29 151.156 92.082zm0 0"/></clipPath><clipPath id="g"><path d="M0 0h167v111H0zm0 0"/></clipPath><clipPath id="h"><path d="M-65.996 16.832 104.3-97.43l62.683 93.418L-3.313 110.254zm0 0"/></clipPath><clipPath id="b"><path d="M-63.324 390.344 151.453 92.137l492.953 355.039L429.63 745.383zm0 0"/></clipPath><clipPath id="j"><path d="M156.355 0H375v32.25H156.355zm0 0"/></clipPath><clipPath id="k"><path d="M278.785 0H375v48.164h-96.215zm0 0"/></clipPath><clipPath id="l"><path d="M335.035-64.336c-31.066 0-56.25 25.184-56.25 56.25s25.184 56.25 56.25 56.25c31.067 0 56.25-25.184 56.25-56.25s-25.183-56.25-56.25-56.25"/></clipPath><clipPath id="m"><path d="M118.898 337.5H375V375H118.898zm0 0"/></clipPath><clipPath id="n"><path d="M250.883 337.5c-72.89 0-131.985 25.184-131.985 56.25S177.992 450 250.883 450c72.894 0 131.988-25.184 131.988-56.25s-59.094-56.25-131.988-56.25"/></clipPath><clipPath id="o"><path d="M0 319h67v56H0zm0 0"/></clipPath><clipPath id="p"><path d="m-43.074 346.102 20.808-26.872 88.946 68.883-20.809 26.871zm0 0"/></clipPath><clipPath id="q"><path d="m-43.074 346.102 20.578-26.57 88.945 68.882-20.578 26.57zm0 0"/></clipPath></defs><path fill="#fff" d="M-37.5-37.5h450v450h-450z"/><path fill="#fff" d="M-37.5-37.5h450v450h-450z"/><path fill="#202124" d="M-37.5-37.5h450v450h-450z"/><path fill="#202124" d="M211.21 159.45c92.349 12.823 128.192-58.583 179.376-126.54 51.18-67.945 126.898-21.75 126.898-21.75-85.761-26.41-88.562 60.348-157.37 148.942-68.81 88.593-148.903-.653-148.903-.653"/><path fill="#202124" d="M49.152 162.184S68.54 30.406 218.738 88.719c0 0 80.598 34.219 147.703-39.465 0 0-75.527 125.016-164.789 94.836-89.265-30.188-127.109-16.903-152.5 18.094"/><path fill="#fff" d="M379.68 27.227s-72.38 73.816-140.274 53.668C143.66 52.48 89.867 42.535-.008 108.387c0 0 101.383-173.043 293.563-78.785 0 0 52.367 24.742 86.125-2.375"/><g clip-path="url(#a)"><g clip-path="url(#b)"><g clip-path="url(#c)"><path fill="#fff" d="M381.7 387.21c-79.18-75.55-162.247-32.222-257.555-2.698-95.301 29.52-135.782-66.371-135.782-66.371 63.602 83.96 125.703 3.355 251.946-33.707 126.234-37.063 141.39 102.777 141.39 102.777"/></g></g></g><g clip-path="url(#d)"><g clip-path="url(#e)"><g clip-path="url(#f)"><path fill="#202124" d="M537.941 495.797S429.2 607.84 326.074 449.328c0 0-53.336-87.844-167.734-63.797 0 0 157.59-67.097 221.941 22.852 64.352 89.953 109.504 103.281 157.66 87.414"/></g></g></g><g clip-path="url(#g)"><g clip-path="url(#h)"><g clip-path="url(#i)"><path fill="#fff" d="M-65.996 16.832 104.3-97.43l62.683 93.418L-3.313 110.254zm0 0"/></g></g></g><g clip-path="url(#j)"><path fill="#fff" d="M156.355-80.25h244.922v112.5H156.355zm0 0"/></g><g clip-path="url(#k)"><g clip-path="url(#l)"><path fill="#fff" d="M278.785-64.336h112.5v112.5h-112.5zm0 0"/></g></g><g clip-path="url(#m)"><g clip-path="url(#n)"><path fill="#fff" d="M118.898 337.5h264.258V450H118.898zm0 0"/></g></g><g clip-path="url(#o)"><g clip-path="url(#p)"><g clip-path="url(#q)"><path fill="#fff" d="m-43.074 346.102 20.449-26.407 88.95 68.883-20.454 26.406zm0 0"/></g></g></g></svg>