<svg xmlns="http://www.w3.org/2000/svg" xmlns:xlink="http://www.w3.org/1999/xlink" width="24" zoomAndPan="magnify" viewBox="0 0 375 374.999991" height="24" preserveAspectRatio="xMidYMid meet" version="1.0"><defs><clipPath id="fa714b89d8"><path d="M 137.933594 137.933594 L 374.933594 137.933594 L 374.933594 374.933594 L 137.933594 374.933594 Z M 137.933594 137.933594 " clip-rule="nonzero"/></clipPath><clipPath id="212ebd4e7a"><path d="M 137.933594 256 L 138 256 L 138 259 L 137.933594 259 Z M 137.933594 256 " clip-rule="nonzero"/></clipPath><clipPath id="e947852cc3"><path d="M 137.933594 185 L 290 185 L 290 373 L 137.933594 373 Z M 137.933594 185 " clip-rule="nonzero"/></clipPath><clipPath id="21d20086cb"><path d="M 0 0 L 237 0 L 237 237 L 0 237 Z M 0 0 " clip-rule="nonzero"/></clipPath></defs><g clip-path="url(#fa714b89d8)"><path fill="#000000" d="M 374.933594 256.433594 C 374.933594 321.882812 321.882812 374.933594 256.4375 374.933594 C 190.988281 374.933594 137.933594 321.882812 137.933594 256.433594 C 137.933594 190.988281 190.988281 137.933594 256.4375 137.933594 C 321.882812 137.933594 374.933594 190.988281 374.933594 256.433594 " fill-opacity="1" fill-rule="nonzero"/></g><g clip-path="url(#212ebd4e7a)"><path fill="#d2d2d2" d="M 137.949219 258.480469 L 137.949219 258.46875 L 137.949219 258.480469 M 137.949219 258.398438 L 137.949219 258.378906 L 137.949219 258.398438 M 137.949219 258.3125 L 137.949219 258.292969 L 137.949219 258.3125 M 137.941406 258.226562 L 137.941406 258.199219 L 137.941406 258.226562 M 137.941406 258.140625 L 137.941406 258.113281 L 137.941406 258.140625 M 137.941406 258.050781 L 137.941406 258.03125 L 137.941406 258.050781 M 137.941406 257.90625 L 137.941406 257.875 L 137.941406 257.90625 M 137.941406 257.824219 L 137.941406 257.789062 L 137.941406 257.824219 M 137.941406 257.738281 L 137.941406 257.695312 L 137.941406 257.738281 M 137.941406 257.648438 L 137.941406 257.605469 L 137.941406 257.648438 M 137.941406 257.5625 L 137.941406 257.515625 L 137.941406 257.5625 M 137.933594 257.46875 L 137.933594 257.421875 L 137.933594 257.46875 M 137.933594 257.378906 L 137.933594 257.328125 L 137.933594 257.378906 M 137.933594 257.292969 L 137.933594 257.21875 L 137.933594 257.292969 M 137.933594 257.191406 L 137.933594 257.109375 L 137.933594 257.191406 M 137.933594 257.078125 L 137.933594 257.019531 L 137.933594 257.078125 M 137.933594 256.984375 L 137.933594 256.925781 L 137.933594 256.984375 M 137.933594 256.890625 L 137.933594 256.835938 L 137.933594 256.890625 M 137.933594 256.796875 L 137.933594 256.742188 L 137.933594 256.796875 M 137.933594 256.707031 L 137.933594 256.652344 L 137.933594 256.707031 M 137.933594 256.617188 L 137.933594 256.550781 L 137.933594 256.617188 M 137.933594 256.523438 L 137.933594 256.433594 L 137.933594 256.523438 " fill-opacity="1" fill-rule="nonzero"/></g><g clip-path="url(#e947852cc3)"><path fill="#545454" d="M 235.003906 372.960938 C 180.445312 362.992188 138.921875 315.691406 137.949219 258.480469 L 137.949219 258.292969 C 137.941406 258.265625 137.941406 258.25 137.941406 258.226562 L 137.941406 258.03125 C 137.941406 257.992188 137.941406 257.949219 137.941406 257.90625 L 137.941406 257.515625 C 137.941406 257.496094 137.941406 257.488281 137.933594 257.46875 L 137.933594 256.433594 C 137.933594 254.300781 137.996094 252.179688 138.101562 250.078125 L 225.191406 185.25 L 289.394531 332.199219 L 235.003906 372.960938 " fill-opacity="1" fill-rule="nonzero"/></g><path fill="#ffffff" d="M 296.578125 229.292969 L 290.359375 229.324219 L 290.515625 247.792969 L 285.132812 247.792969 L 285.132812 224 L 270.523438 224 L 270.523438 247.839844 L 265.136719 247.839844 L 264.800781 218.589844 L 250.523438 218.617188 L 250.523438 247.839844 L 245.136719 247.839844 L 245.136719 185.402344 L 230.613281 184.917969 L 230.480469 263.792969 L 225.097656 263.792969 L 225.097656 251.484375 L 219.886719 251.484375 L 219.90625 246.21875 L 214.429688 245.9375 L 214.429688 240.550781 L 204.332031 240.863281 L 204.332031 251.257812 L 204.226562 256.601562 L 209.714844 256.636719 L 209.714844 267.292969 L 215.101562 267.402344 L 215.101562 277.46875 L 220.484375 278.171875 L 220.484375 288.179688 L 225.863281 288.988281 L 225.863281 299.054688 L 231.246094 299.75 L 231.246094 309.761719 L 236.636719 310.519531 L 236.636719 326.625 L 291.191406 326.625 L 291.191406 310.792969 L 296.578125 310.625 L 296.578125 278.554688 L 301.066406 278.554688 L 301.066406 234.660156 L 296.578125 234.71875 L 296.578125 229.292969 " fill-opacity="1" fill-rule="nonzero"/><path fill="#737373" d="M 284.636719 223.714844 L 284.636719 218.378906 L 264.640625 218.378906 L 264.640625 247.605469 L 270.027344 247.605469 L 270.027344 223.761719 L 284.636719 223.761719 L 284.636719 247.558594 L 290.019531 247.558594 L 290.019531 229.09375 L 296.078125 229.09375 L 296.078125 223.714844 L 284.636719 223.714844 M 296.078125 310.554688 L 301.460938 310.554688 L 301.460938 278.316406 L 296.078125 278.316406 L 296.078125 310.554688 M 296.078125 229.09375 L 296.078125 234.480469 L 301.460938 234.480469 L 301.460938 229.09375 L 296.078125 229.09375 M 301.460938 234.480469 L 301.460938 278.316406 L 306.839844 278.316406 L 306.839844 234.480469 L 301.460938 234.480469 M 213.933594 240.3125 L 213.933594 245.703125 L 219.316406 245.703125 L 219.316406 240.3125 L 213.933594 240.3125 M 214.601562 277.933594 L 214.601562 288.699219 L 219.988281 288.699219 L 219.988281 277.933594 L 214.601562 277.933594 M 219.988281 288.75 L 219.988281 299.511719 L 225.367188 299.511719 L 225.367188 288.75 L 219.988281 288.75 M 225.367188 299.511719 L 225.367188 310.28125 L 230.75 310.28125 L 230.75 299.511719 L 225.367188 299.511719 M 209.21875 267.164062 L 209.21875 277.933594 L 214.601562 277.933594 L 214.601562 267.164062 L 209.21875 267.164062 M 203.835938 256.402344 L 203.835938 267.164062 L 209.21875 267.164062 L 209.21875 256.402344 L 203.835938 256.402344 M 203.835938 251.019531 L 203.835938 240.480469 L 198.453125 240.480469 L 198.453125 256.402344 L 203.835938 256.402344 L 203.835938 251.019531 M 214.050781 234.933594 L 203.878906 234.933594 L 203.878906 240.3125 L 214.050781 240.3125 L 214.050781 234.933594 M 290.695312 326.386719 L 236.140625 326.386719 L 236.140625 310.28125 L 230.75 310.28125 L 230.75 331.769531 L 290.695312 331.769531 L 290.695312 326.410156 L 296.078125 326.410156 L 296.078125 310.554688 L 290.695312 310.554688 L 290.695312 326.386719 M 224.601562 245.863281 L 219.386719 245.863281 L 219.386719 251.246094 L 224.601562 251.246094 L 224.601562 263.554688 L 229.980469 263.554688 L 229.980469 184.847656 L 224.601562 184.847656 L 224.601562 245.863281 M 250.027344 212.996094 L 250.027344 184.683594 L 244.640625 184.683594 L 244.640625 247.605469 L 250.027344 247.605469 L 250.027344 218.378906 L 264.640625 218.378906 L 264.640625 212.996094 L 250.03125 212.996094 M 230.035156 179.773438 L 230.035156 185.164062 L 244.640625 185.164062 L 244.640625 179.773438 L 230.035156 179.773438 " fill-opacity="1" fill-rule="nonzero"/><g clip-path="url(#21d20086cb)"><path fill="#000000" d="M 237.003906 118.5 C 237.003906 183.949219 183.949219 237.003906 118.503906 237.003906 C 53.054688 237.003906 0.00390625 183.949219 0.00390625 118.5 C 0.00390625 53.054688 53.054688 0.00390625 118.503906 0.00390625 C 183.949219 0.00390625 237.003906 53.054688 237.003906 118.5 " fill-opacity="1" fill-rule="nonzero"/></g><path fill="#d2d2d2" d="M 0.015625 120.550781 L 0.015625 120.535156 L 0.015625 120.550781 M 0.015625 120.46875 L 0.015625 120.445312 L 0.015625 120.46875 M 0.015625 120.382812 L 0.015625 120.359375 L 0.015625 120.382812 M 0.0117188 120.292969 L 0.0117188 120.269531 L 0.0117188 120.292969 M 0.0117188 120.207031 L 0.0117188 120.179688 L 0.0117188 120.207031 M 0.0117188 120.117188 L 0.0117188 120.097656 L 0.0117188 120.117188 M 0.0078125 119.972656 L 0.0078125 119.941406 L 0.0078125 119.972656 M 0.0078125 119.890625 L 0.0078125 119.855469 L 0.0078125 119.890625 M 0.0078125 119.804688 L 0.0078125 119.765625 L 0.0078125 119.804688 M 0.0078125 119.714844 L 0.0078125 119.671875 L 0.0078125 119.714844 M 0.0078125 119.628906 L 0.0078125 119.582031 L 0.0078125 119.628906 M 0.00390625 119.539062 L 0.00390625 119.488281 L 0.00390625 119.539062 M 0.00390625 119.445312 L 0.00390625 119.394531 L 0.00390625 119.445312 M 0.00390625 119.359375 L 0.00390625 119.285156 L 0.00390625 119.359375 M 0.00390625 119.257812 L 0.00390625 119.175781 L 0.00390625 119.257812 M 0.00390625 119.144531 L 0.00390625 119.085938 L 0.00390625 119.144531 M 0.00390625 119.054688 L 0.00390625 118.992188 L 0.00390625 119.054688 M 0.00390625 118.957031 L 0.00390625 118.902344 L 0.00390625 118.957031 M 0.00390625 118.867188 L 0.00390625 118.8125 L 0.00390625 118.867188 M 0.00390625 118.773438 L 0.00390625 118.71875 L 0.00390625 118.773438 M 0.00390625 118.683594 L 0.00390625 118.617188 L 0.00390625 118.683594 M 0.00390625 118.589844 L 0.00390625 118.5 L 0.00390625 118.589844 " fill-opacity="1" fill-rule="nonzero"/><path fill="#545454" d="M 97.070312 235.03125 C 42.511719 225.0625 0.988281 177.757812 0.015625 120.550781 L 0.015625 120.359375 C 0.0117188 120.335938 0.0117188 120.316406 0.0117188 120.292969 L 0.0117188 120.097656 C 0.0117188 120.058594 0.0117188 120.015625 0.0078125 119.972656 L 0.0078125 119.582031 C 0.0078125 119.5625 0.0078125 119.554688 0.00390625 119.535156 L 0.00390625 118.5 C 0.00390625 116.367188 0.0625 114.25 0.171875 112.144531 L 87.257812 47.320312 L 151.460938 194.265625 L 97.070312 235.03125 " fill-opacity="1" fill-rule="nonzero"/><path fill="#ffffff" d="M 158.644531 91.359375 L 152.429688 91.394531 L 152.582031 109.863281 L 147.199219 109.863281 L 147.199219 86.066406 L 132.589844 86.066406 L 132.589844 109.910156 L 127.203125 109.910156 L 126.867188 80.65625 L 112.59375 80.683594 L 112.59375 109.910156 L 107.207031 109.910156 L 107.207031 47.46875 L 92.679688 46.984375 L 92.546875 125.859375 L 87.167969 125.859375 L 87.167969 113.554688 L 81.953125 113.554688 L 81.976562 108.285156 L 76.496094 108.007812 L 76.496094 102.617188 L 66.398438 102.929688 L 66.398438 113.324219 L 66.296875 118.667969 L 71.78125 118.707031 L 71.78125 129.359375 L 77.167969 129.46875 L 77.167969 139.535156 L 82.550781 140.238281 L 82.550781 150.246094 L 87.933594 151.054688 L 87.933594 161.125 L 93.3125 161.816406 L 93.3125 171.828125 L 98.707031 172.585938 L 98.707031 188.691406 L 153.257812 188.691406 L 153.257812 172.859375 L 158.644531 172.691406 L 158.644531 140.625 L 163.132812 140.625 L 163.132812 96.726562 L 158.644531 96.785156 L 158.644531 91.363281 " fill-opacity="1" fill-rule="nonzero"/><path fill="#737373" d="M 146.703125 85.78125 L 146.703125 80.449219 L 126.707031 80.449219 L 126.707031 109.671875 L 132.09375 109.671875 L 132.09375 85.828125 L 146.703125 85.828125 L 146.703125 109.625 L 152.085938 109.625 L 152.085938 91.160156 L 158.144531 91.160156 L 158.144531 85.78125 L 146.703125 85.78125 M 158.144531 172.621094 L 163.53125 172.621094 L 163.53125 140.386719 L 158.144531 140.386719 L 158.144531 172.621094 M 158.144531 91.160156 L 158.144531 96.546875 L 163.53125 96.546875 L 163.53125 91.160156 L 158.144531 91.160156 M 163.53125 96.546875 L 163.53125 140.386719 L 168.90625 140.386719 L 168.90625 96.546875 L 163.53125 96.546875 M 76 102.382812 L 76 107.769531 L 81.382812 107.769531 L 81.382812 102.382812 L 76 102.382812 M 76.667969 140 L 76.667969 150.765625 L 82.054688 150.765625 L 82.054688 140 L 76.667969 140 M 82.054688 150.816406 L 82.054688 161.578125 L 87.4375 161.578125 L 87.4375 150.816406 L 82.054688 150.816406 M 87.4375 161.578125 L 87.4375 172.347656 L 92.816406 172.347656 L 92.816406 161.578125 L 87.4375 161.578125 M 71.289062 129.230469 L 71.289062 140 L 76.667969 140 L 76.667969 129.230469 L 71.289062 129.230469 M 65.902344 118.46875 L 65.902344 129.230469 L 71.289062 129.230469 L 71.289062 118.46875 L 65.902344 118.46875 M 65.902344 113.085938 L 65.902344 102.550781 L 60.519531 102.550781 L 60.519531 118.46875 L 65.902344 118.46875 L 65.902344 113.085938 M 76.117188 97 L 65.949219 97 L 65.949219 102.382812 L 76.117188 102.382812 L 76.117188 97 M 152.761719 188.453125 L 98.210938 188.453125 L 98.210938 172.347656 L 92.816406 172.347656 L 92.816406 193.835938 L 152.761719 193.835938 L 152.761719 188.476562 L 158.144531 188.476562 L 158.144531 172.621094 L 152.761719 172.621094 L 152.761719 188.453125 M 86.667969 107.929688 L 81.453125 107.929688 L 81.453125 113.3125 L 86.667969 113.3125 L 86.667969 125.621094 L 92.050781 125.621094 L 92.050781 46.914062 L 86.667969 46.914062 L 86.667969 107.929688 M 112.097656 75.066406 L 112.097656 46.75 L 106.710938 46.75 L 106.710938 109.671875 L 112.097656 109.671875 L 112.097656 80.449219 L 126.707031 80.449219 L 126.707031 75.066406 L 112.097656 75.066406 M 92.101562 41.839844 L 92.101562 47.230469 L 106.710938 47.230469 L 106.710938 41.839844 L 92.101562 41.839844 " fill-opacity="1" fill-rule="nonzero"/></svg>