<svg xmlns="http://www.w3.org/2000/svg" xmlns:xlink="http://www.w3.org/1999/xlink" width="500" zoomAndPan="magnify" viewBox="0 0 375 374.999991" height="500" preserveAspectRatio="xMidYMid meet" version="1.0"><defs><g/><clipPath id="ae21e917d3"><path d="M 0 213.878906 L 375 213.878906 L 375 304.867188 L 0 304.867188 Z M 0 213.878906 " clip-rule="nonzero"/></clipPath><clipPath id="18ea450bda"><path d="M 17.25 213.878906 L 357.75 213.878906 C 362.324219 213.878906 366.710938 215.695312 369.949219 218.933594 C 373.183594 222.167969 375 226.554688 375 231.128906 L 375 287.617188 C 375 292.191406 373.183594 296.578125 369.949219 299.8125 C 366.710938 303.050781 362.324219 304.867188 357.75 304.867188 L 17.25 304.867188 C 12.675781 304.867188 8.289062 303.050781 5.050781 299.8125 C 1.816406 296.578125 0 292.191406 0 287.617188 L 0 231.128906 C 0 226.554688 1.816406 222.167969 5.050781 218.933594 C 8.289062 215.695312 12.675781 213.878906 17.25 213.878906 " clip-rule="nonzero"/></clipPath></defs><rect x="-37.5" width="450" fill="#ffffff" y="-37.499999" height="449.999989" fill-opacity="1"/><rect x="-37.5" width="450" fill="#ffffff" y="-37.499999" height="449.999989" fill-opacity="1"/><rect x="-37.5" width="450" fill="#000000" y="-37.499999" height="449.999989" fill-opacity="1"/><g clip-path="url(#ae21e917d3)"><g clip-path="url(#18ea450bda)"><path fill="#ff3131" d="M 0 213.878906 L 375 213.878906 L 375 304.867188 L 0 304.867188 Z M 0 213.878906 " fill-opacity="1" fill-rule="nonzero"/></g></g><g fill="#ffffff" fill-opacity="1"><g transform="translate(0.00586387, 304.134659)"><g><path d="M 203.28125 0 L 159.234375 0 L 143.296875 -48.828125 L 62.15625 -48.828125 L 46.21875 0 L 3.1875 0 L 76.359375 -211.828125 L 130.109375 -211.828125 Z M 100.703125 -167.640625 L 73.453125 -84.03125 L 131.703125 -84.03125 L 104.328125 -167.640625 Z M 100.703125 -167.640625 "/></g></g><g transform="translate(206.476029, 304.134659)"><g><path d="M 62.296875 3.046875 C 52.054688 3.046875 43.171875 1.160156 35.640625 -2.609375 C 28.109375 -6.378906 22.3125 -11.910156 18.25 -19.203125 C 14.195312 -26.492188 12.171875 -35.257812 12.171875 -45.5 C 12.171875 -54.957031 14.195312 -62.898438 18.25 -69.328125 C 22.3125 -75.753906 28.59375 -81.019531 37.09375 -85.125 C 45.59375 -89.226562 56.703125 -92.390625 70.421875 -94.609375 C 79.984375 -96.160156 87.25 -97.851562 92.21875 -99.6875 C 97.195312 -101.519531 100.554688 -103.59375 102.296875 -105.90625 C 104.035156 -108.226562 104.90625 -111.175781 104.90625 -114.75 C 104.90625 -119.875 103.113281 -123.785156 99.53125 -126.484375 C 95.957031 -129.191406 90.019531 -130.546875 81.71875 -130.546875 C 72.832031 -130.546875 64.378906 -128.566406 56.359375 -124.609375 C 48.347656 -120.648438 41.394531 -115.429688 35.5 -108.953125 L 32.59375 -108.953125 L 15.796875 -134.3125 C 23.910156 -143.289062 33.8125 -150.289062 45.5 -155.3125 C 57.1875 -160.34375 69.9375 -162.859375 83.75 -162.859375 C 104.90625 -162.859375 120.210938 -158.363281 129.671875 -149.375 C 139.140625 -140.394531 143.875 -127.644531 143.875 -111.125 L 143.875 -41.734375 C 143.875 -34.578125 147.015625 -31 153.296875 -31 C 155.710938 -31 158.078125 -31.4375 160.390625 -32.3125 L 162.421875 -31.734375 L 165.3125 -3.765625 C 163.09375 -2.316406 160.003906 -1.132812 156.046875 -0.21875 C 152.085938 0.695312 147.738281 1.15625 143 1.15625 C 133.4375 1.15625 125.972656 -0.675781 120.609375 -4.34375 C 115.253906 -8.019531 111.421875 -13.769531 109.109375 -21.59375 L 106.0625 -21.875 C 98.238281 -5.257812 83.648438 3.046875 62.296875 3.046875 Z M 75.046875 -26.953125 C 84.328125 -26.953125 91.742188 -30.066406 97.296875 -36.296875 C 102.847656 -42.523438 105.625 -51.191406 105.625 -62.296875 L 105.625 -78.53125 L 102.875 -79.109375 C 100.457031 -77.179688 97.289062 -75.5625 93.375 -74.25 C 89.46875 -72.945312 83.84375 -71.671875 76.5 -70.421875 C 67.8125 -68.972656 61.554688 -66.484375 57.734375 -62.953125 C 53.921875 -59.429688 52.015625 -54.429688 52.015625 -47.953125 C 52.015625 -41.097656 54.039062 -35.882812 58.09375 -32.3125 C 62.15625 -28.738281 67.804688 -26.953125 75.046875 -26.953125 Z M 75.046875 -26.953125 "/></g></g></g></svg>