<svg xmlns="http://www.w3.org/2000/svg" xmlns:xlink="http://www.w3.org/1999/xlink" width="24" zoomAndPan="magnify" viewBox="0 0 375 374.999991" height="24" preserveAspectRatio="xMidYMid meet" version="1.0"><defs><g/><clipPath id="630b45e764"><path d="M 0 213.878906 L 375 213.878906 L 375 305 L 0 305 Z M 0 213.878906 " clip-rule="nonzero"/></clipPath><clipPath id="4853a57b92"><path d="M 17.25 213.878906 L 357.75 213.878906 C 362.324219 213.878906 366.710938 215.695312 369.949219 218.933594 C 373.183594 222.167969 375 226.554688 375 231.128906 L 375 287.617188 C 375 292.191406 373.183594 296.578125 369.949219 299.8125 C 366.710938 303.050781 362.324219 304.867188 357.75 304.867188 L 17.25 304.867188 C 12.675781 304.867188 8.289062 303.050781 5.050781 299.8125 C 1.816406 296.578125 0 292.191406 0 287.617188 L 0 231.128906 C 0 226.554688 1.816406 222.167969 5.050781 218.933594 C 8.289062 215.695312 12.675781 213.878906 17.25 213.878906 " clip-rule="nonzero"/></clipPath></defs><g clip-path="url(#630b45e764)"><g clip-path="url(#4853a57b92)"><path fill="#ff3131" d="M 0 213.878906 L 375 213.878906 L 375 304.699219 L 0 304.699219 Z M 0 213.878906 " fill-opacity="1" fill-rule="nonzero"/></g></g><g fill="#000000" fill-opacity="1"><g transform="translate(0.0000045, 298.778511)"><g><path d="M 203.265625 0 L 159.21875 0 L 143.28125 -48.828125 L 62.15625 -48.828125 L 46.21875 0 L 3.1875 0 L 76.359375 -211.8125 L 130.109375 -211.8125 Z M 100.6875 -167.625 L 73.453125 -84.03125 L 131.703125 -84.03125 L 104.3125 -167.625 Z M 100.6875 -167.625 "/></g></g></g><g fill="#000000" fill-opacity="1"><g transform="translate(206.453724, 298.778511)"><g><path d="M 62.296875 3.046875 C 52.054688 3.046875 43.171875 1.160156 35.640625 -2.609375 C 28.109375 -6.378906 22.3125 -11.910156 18.25 -19.203125 C 14.195312 -26.492188 12.171875 -35.257812 12.171875 -45.5 C 12.171875 -54.957031 14.195312 -62.894531 18.25 -69.3125 C 22.3125 -75.738281 28.59375 -81.003906 37.09375 -85.109375 C 45.59375 -89.222656 56.695312 -92.390625 70.40625 -94.609375 C 79.96875 -96.148438 87.234375 -97.835938 92.203125 -99.671875 C 97.179688 -101.515625 100.539062 -103.59375 102.28125 -105.90625 C 104.019531 -108.226562 104.890625 -111.175781 104.890625 -114.75 C 104.890625 -119.863281 103.101562 -123.769531 99.53125 -126.46875 C 95.957031 -129.175781 90.019531 -130.53125 81.71875 -130.53125 C 72.832031 -130.53125 64.378906 -128.550781 56.359375 -124.59375 C 48.335938 -120.632812 41.382812 -115.421875 35.5 -108.953125 L 32.59375 -108.953125 L 15.796875 -134.3125 C 23.910156 -143.289062 33.8125 -150.289062 45.5 -155.3125 C 57.1875 -160.332031 69.929688 -162.84375 83.734375 -162.84375 C 104.890625 -162.84375 120.203125 -158.351562 129.671875 -149.375 C 139.140625 -140.394531 143.875 -127.644531 143.875 -111.125 L 143.875 -41.71875 C 143.875 -34.570312 147.007812 -31 153.28125 -31 C 155.695312 -31 158.066406 -31.4375 160.390625 -32.3125 L 162.40625 -31.734375 L 165.3125 -3.765625 C 163.09375 -2.316406 160 -1.132812 156.03125 -0.21875 C 152.070312 0.695312 147.726562 1.15625 143 1.15625 C 133.4375 1.15625 125.972656 -0.675781 120.609375 -4.34375 C 115.253906 -8.019531 111.414062 -13.769531 109.09375 -21.59375 L 106.046875 -21.875 C 98.222656 -5.257812 83.640625 3.046875 62.296875 3.046875 Z M 75.046875 -26.953125 C 84.316406 -26.953125 91.726562 -30.066406 97.28125 -36.296875 C 102.84375 -42.523438 105.625 -51.191406 105.625 -62.296875 L 105.625 -78.53125 L 102.859375 -79.109375 C 100.453125 -77.171875 97.289062 -75.550781 93.375 -74.25 C 89.46875 -72.945312 83.84375 -71.664062 76.5 -70.40625 C 67.800781 -68.957031 61.546875 -66.46875 57.734375 -62.9375 C 53.921875 -59.414062 52.015625 -54.421875 52.015625 -47.953125 C 52.015625 -41.097656 54.039062 -35.882812 58.09375 -32.3125 C 62.15625 -28.738281 67.804688 -26.953125 75.046875 -26.953125 Z M 75.046875 -26.953125 "/></g></g></g></svg>